<?xml version="1.0" encoding="utf-8"?>
<!-- Generator: Adobe Illustrator 26.0.1, SVG Export Plug-In . SVG Version: 6.00 Build 0)  -->
<svg version="1.1" id="Capa_1" xmlns="http://www.w3.org/2000/svg" xmlns:xlink="http://www.w3.org/1999/xlink" x="0px" y="0px"
	 viewBox="0 0 197.5 54.1" style="enable-background:new 0 0 197.5 54.1;" xml:space="preserve">
<style type="text/css">
	.st0{fill:#FFFFFF;}
	.st1{fill:#8BBD23;}
	.st2{fill:#323366;}
	.st3{fill:#3198CC;}
</style>
<g>
	<path class="st0" d="M178.5,50.2c1.1-0.3,2.2-0.8,3.2-1.3c3.9-1.9,7.5-4.2,10.5-7.3c1.8-1.9,3.4-4.1,4.2-6.6
		c1.1-3.2,1.2-6.4-0.5-9.4c-1.2-2.2-3-3.7-5.4-4.4c-4.3-1.3-8.1,0.5-10.7,3.9c-0.3,0.4-0.7,0.8-0.8,1.4c-0.2,0-0.3-0.1-0.5-0.2
		c-4.6-3-10.4-0.7-11.6,4.7c-0.7,2.9,0,5.6,1.3,8.3c1.6,3.3,4,5.9,6.7,8.3c1.1,0.9,2.2,1.9,3.4,2.6
		C178.3,50.3,178.4,50.2,178.5,50.2z M193.1,12.8c-0.2-2.3-2.2-5.2-5.8-5c-2.4,0.2-5,2.4-5,5.5c0,2.7,2.5,5.5,5.4,5.3
		C190.7,18.8,193.3,16.1,193.1,12.8z M173.8,21.8c2.2,0,3.9-1.8,3.9-4c0-2.1-1.8-3.9-3.9-3.9c-2.2,0-3.9,1.8-3.9,4
		C169.9,20,171.7,21.8,173.8,21.8z"/>
	<path class="st1" d="M178.5,50.2c1.1-0.3,2.2-0.8,3.2-1.3c3.9-1.9,7.5-4.2,10.5-7.3c1.8-1.9,3.4-4.1,4.2-6.6
		c1.1-3.2,1.2-6.4-0.5-9.4c-1.2-2.2-3-3.7-5.4-4.4c-4.3-1.3-8.1,0.5-10.7,3.9c-0.3,0.4-0.7,0.8-0.8,1.4c0,0.1,0,0.1,0,0.2
		c0.3,0.2,0.7,0.4,1,0.7c1.4,1.8,2.4,3.9,2.6,6.2c0.2,2.1,0.2,4.3-0.3,6.4c-0.5,2.3-1.2,4.6-2.2,6.8C179.6,47.9,179,49,178.5,50.2z"
		/>
	<path class="st2" d="M179,26.6c0-0.1,0-0.1,0-0.2c-0.2,0-0.3-0.1-0.5-0.2c-4.6-3-10.4-0.7-11.6,4.7c-0.7,2.9,0,5.6,1.3,8.3
		c1.6,3.3,4,5.9,6.7,8.3c1.1,0.9,2.2,1.9,3.4,2.6c-0.8-3.1-1.5-6.3-1.7-9.5c-0.2-2.6-0.2-5.3,0.2-7.9c0.3-2,0.9-3.9,1.8-5.7
		C178.6,26.9,178.7,26.7,179,26.6z"/>
	<path class="st3" d="M179,26.6c-0.3,0-0.4,0.3-0.5,0.5c-0.9,1.8-1.5,3.7-1.8,5.7c-0.4,2.6-0.4,5.3-0.2,7.9c0.2,3.2,0.9,6.4,1.7,9.5
		c0.1,0.1,0.2,0.1,0.3,0c0.6-1.2,1.1-2.3,1.7-3.5c1-2.2,1.7-4.4,2.2-6.8c0.5-2.1,0.5-4.2,0.3-6.4c-0.2-2.3-1.2-4.4-2.6-6.2
		C179.7,27.1,179.3,26.9,179,26.6z"/>
	<path class="st1" d="M187.8,18.6c2.9,0.2,5.6-2.5,5.3-5.8c-0.2-2.3-2.2-5.2-5.8-5c-2.4,0.2-5,2.4-5,5.5
		C182.3,16,184.8,18.8,187.8,18.6z"/>
	<path class="st2" d="M169.8,17.9c0,2.1,1.8,3.9,3.9,3.9c2.2,0,3.9-1.8,3.9-4c0-2.1-1.8-3.9-3.9-3.9
		C171.6,13.9,169.8,15.7,169.8,17.9z"/>
</g>
<g>
	<path class="st3" d="M92.7,15.6c-0.4,0.2-0.8,0.3-1.1,0.2c-0.3-0.1-0.6-0.2-0.7-0.4c-0.2-0.2-0.2-0.4-0.2-0.8
		c0-0.3,0.2-0.6,0.4-0.9c0.4-0.6,0.6-1.2,0.9-1.9c0.2-0.7,0.3-1.4,0.2-2.2c0-1.3-0.5-2.3-1.2-3.1c-0.8-0.8-1.7-1.4-2.9-1.7
		c-2.3-0.7-4.6-0.7-6.8,0c-2.2,0.7-4.3,1.9-6.2,3.5c-2,1.6-3.7,3.4-5.4,5.5c-1.6,2.1-3,4.2-4.1,6.2c-1.3,2.3-2.3,4.8-3.2,7.5
		c-0.9,2.7-1.4,5.3-1.4,7.8c-0.2,3.5,0.4,6.1,1.8,8.1c1.4,1.9,3.3,3.2,5.6,3.8c2.3,0.7,5,0.8,8.1,0.4c3-0.4,6.1-1.1,9.1-2.2
		c3.1-1.1,6-2.4,8.8-4c2.8-1.6,5.2-3.2,7.2-5c0.4-0.3,0.8-0.4,1.1-0.4c0.4,0,0.6,0.1,0.8,0.3c0.2,0.2,0.2,0.5,0.2,0.8
		c0,0.4-0.2,0.7-0.6,1.1c-1.6,1.5-3.5,3.1-5.8,4.6c-2.3,1.5-4.7,2.9-7.2,4.2c-2.6,1.3-5.2,2.4-7.9,3.3c-2.7,0.9-5.3,1.5-7.9,1.9
		c-2.5,0.3-4.9,0.3-7.2-0.1c-2.2-0.4-4.1-1.2-5.7-2.5c-2.1-1.8-3.7-3.9-4.5-6.4c-0.9-2.5-1.2-5.1-1.1-7.9c0.1-2.8,0.7-5.7,1.7-8.6
		c1-3,2.3-5.8,3.9-8.6c1.1-1.8,2.4-3.8,3.9-5.8c1.6-2,3.3-3.9,5.1-5.6c1.9-1.7,3.9-3.1,6-4.3c2.1-1.2,4.3-1.8,6.5-1.9
		c2.2-0.1,4.3,0.2,6.2,1c1.9,0.8,3.4,1.9,4.5,3.3c1.1,1.4,1.6,3,1.5,4.9C95.3,11.6,94.4,13.6,92.7,15.6z"/>
	<path class="st3" d="M114.7,30.6c0,0.2,0,0.4-0.1,0.7c0.9-0.2,1.6,0,2.1,0.5c0.5,0.5,0.8,1.3,0.7,2.3c-0.2,0.8-0.5,1.8-0.8,3.1
		c-0.4,1.3-0.7,2.6-1.1,3.9c-0.3,1.3-0.6,2.6-0.8,3.8c-0.2,1.2-0.2,2.2,0,2.9c0.7,0,1.3-0.3,1.9-0.6c0.6-0.4,1.2-0.8,1.7-1.3
		c0.5-0.5,1.1-1,1.5-1.6c0.5-0.6,0.9-1.1,1.3-1.6c0.4-0.3,0.7-0.4,1.1-0.4c0.4,0,0.6,0.1,0.9,0.4c0.2,0.2,0.3,0.5,0.4,0.9
		c0,0.4-0.1,0.7-0.4,1.1c0,0-0.3,0.4-0.8,1c-0.5,0.6-1,1.2-1.7,2c-0.7,0.7-1.4,1.4-2.1,2.1c-0.7,0.7-1.4,1.2-2.1,1.4
		c-0.8,0.4-1.7,0.5-2.7,0.5c-1,0-1.7-0.5-2.2-1.4c-0.4-0.9-0.7-1.8-0.8-2.6c-0.2-0.9-0.2-1.8-0.2-2.6c-0.8,0.8-1.7,1.5-2.6,2
		c-0.9,0.6-2,1.2-3.1,1.8c-0.4,0.1-0.9,0.1-1.4,0c-0.5-0.1-1-0.3-1.4-0.5c-0.5-0.2-0.9-0.5-1.2-0.9c-0.4-0.4-0.6-0.8-0.8-1.3
		c-0.4-1.1-0.4-2.5-0.2-4.3c0.2-1.8,0.7-3.6,1.3-5.4c0.6-1.8,1.4-3.5,2.3-5c0.9-1.5,1.9-2.6,2.9-3.2c0.6-0.4,1.1-0.7,1.7-1.1
		c0.5-0.4,1.1-0.6,1.7-0.7c0.7-0.1,1.4-0.1,2,0.1c0.6,0.2,1.2,0.5,1.6,0.9c0.5,0.4,0.8,0.9,1,1.5C114.6,29.3,114.7,29.9,114.7,30.6z
		 M104.5,43.2c1.1-0.6,2-1.4,2.7-2.4c0.7-1,1.3-2,1.9-3.1c0.6-1.1,1.2-2.1,1.7-3.1c0.6-1,1.3-1.9,2.2-2.6c-0.6-0.2-0.9-0.6-0.9-1.2
		l-0.1-0.6l-1.8-0.6c-1,0.7-1.9,1.5-2.6,2.6c-0.7,1.1-1.4,2.2-1.8,3.5c-0.5,1.2-0.8,2.5-1.1,3.8C104.5,40.8,104.4,42,104.5,43.2z"/>
	<path class="st3" d="M122.8,44.3c-0.4,0.1-0.7,0-1-0.1c-0.3-0.2-0.5-0.4-0.6-0.7c-0.1-0.3-0.2-0.6-0.1-0.9c0.1-0.3,0.3-0.6,0.6-0.9
		c0.5-0.8,1.1-2,1.9-3.7c0.8-1.6,1.5-3.3,2.3-5c0.8-1.7,1.6-3.4,2.3-4.9c0.7-1.5,1.3-2.6,1.8-3.3c1-0.8,2.1-0.8,3.2-0.1
		c1.1,1.5,2.1,2.9,2.9,3.9c0.8,1.1,1.4,2.1,1.9,3.1c0.5,0.9,0.8,1.9,1,2.7c0.2,0.9,0.2,1.9,0.2,2.9c-0.1,1.1-0.2,2.3-0.5,3.7
		c-0.3,1.4-0.6,3-1,5c1.3-0.3,2.5-0.6,3.7-1.1c1.2-0.5,2.5-1,3.7-1.4c0.4-0.2,0.8-0.2,1.2,0c0.3,0.2,0.6,0.4,0.7,0.6
		c0.1,0.3,0.2,0.6,0.1,0.9c-0.1,0.4-0.3,0.6-0.7,0.9c-1.5,0.9-3.1,1.7-4.7,2.6c-1.6,0.8-3.2,1.6-4.9,2.2c-0.6,0.1-1,0.1-1.4,0
		c-0.4-0.1-0.7-0.4-1.2-0.8c-0.7-0.6-1.1-1.3-1.2-2c-0.1-0.7-0.2-1.4-0.1-2.1c0.1-0.7,0.2-1.5,0.5-2.2c0.2-0.8,0.4-1.5,0.5-2.3
		c0.1-1.1,0.2-2.2,0.2-3.2c0-1-0.1-1.9-0.2-2.7c-0.2-0.9-0.4-1.7-0.8-2.6c-0.4-0.9-0.9-1.8-1.5-2.7c-0.4,0.5-0.9,1.4-1.6,2.9
		c-0.7,1.4-1.5,3-2.4,4.6c-0.9,1.6-1.7,3.1-2.5,4.5C124,43.3,123.3,44.1,122.8,44.3z"/>
	<path class="st3" d="M159.5,31.8c-0.5,1.1-1.1,2.3-1.7,3.4c-0.6,1.1-1.3,2.2-2.1,3.1c-0.8,0.9-1.6,1.8-2.5,2.5
		c-0.9,0.7-2,1.2-3.2,1.5c0,0.7,0.1,1.4,0.2,2.2c0.1,0.7,0.3,1.4,0.6,1.9c0.3,0.5,0.7,0.8,1.3,1c0.6,0.1,1.3-0.1,2.2-0.6
		c0.3-0.2,0.8-0.5,1.4-0.9c0.6-0.4,1.3-0.9,2-1.5c0.7-0.6,1.4-1.2,2-1.9c0.6-0.7,1.1-1.3,1.5-2c0.2-0.4,0.4-0.6,0.8-0.6
		c0.3,0,0.6,0.1,0.9,0.4c0.3,0.3,0.4,0.6,0.5,1c0.1,0.4,0,0.8-0.3,1.1c-0.3,0.5-0.7,1.2-1.4,1.9c-0.7,0.7-1.4,1.5-2.1,2.2
		c-0.7,0.7-1.5,1.4-2.2,2c-0.7,0.6-1.3,1-1.7,1.2c-0.1,0-0.3,0.1-0.5,0.3c-0.3,0.1-0.6,0.3-0.9,0.5c-0.3,0.2-0.7,0.3-1,0.5
		c-0.4,0.1-0.7,0.2-0.9,0.2c-1,0-1.8-0.2-2.6-0.6c-0.8-0.4-1.5-0.9-2-1.5c-0.6-0.6-1-1.4-1.4-2.2c-0.4-0.8-0.6-1.7-0.7-2.6
		c0-0.3-0.1-0.6-0.1-0.9c0-0.3,0-0.6,0-0.9c-0.3-0.2-0.5-0.5-0.5-0.9c0-0.4,0.1-0.7,0.4-1c0-0.7,0-1.3,0.1-2c0.1-0.7,0.2-1.3,0.4-2
		c0.3-1.1,0.8-2.5,1.3-4.1c0.6-1.6,1.3-3.2,2.3-4.6c0.9-1.4,2-2.7,3.3-3.6c1.2-1,2.7-1.4,4.2-1.2c1,0.1,1.8,0.5,2.2,1.2
		c0.5,0.7,0.8,1.5,0.9,2.4c0.1,0.9,0.1,1.9,0,2.8C160.1,30.4,159.8,31.2,159.5,31.8z M155.7,28.5c-0.5,0.4-1.1,1.1-1.6,1.8
		c-0.5,0.8-1,1.7-1.5,2.6c-0.5,1-0.9,2-1.2,3c-0.4,1-0.6,2-0.9,2.9c0.4-0.4,0.7-0.8,1.1-1.3c0.4-0.5,0.8-1.2,1.3-2
		c0.2-0.4,0.5-0.8,0.8-1.4c0.3-0.6,0.6-1.2,0.9-1.8c0.3-0.7,0.5-1.3,0.7-2C155.6,29.6,155.7,29,155.7,28.5z"/>
</g>
<g id="Logotipo_Principal_00000119814114691470911450000018225393889982763158_">
	<path class="st2" d="M23.8,30.3h3.1l-4,11h-3l-3.9-11h3.2l2.3,8.1L23.8,30.3z"/>
	<rect x="28.5" y="30.3" class="st2" width="2.9" height="11"/>
	<path class="st2" d="M70.3,32.7v-2.3H79v2.4L73.6,39h5.6v2.4h-9.3v-2.2l5.5-6.4H70.3z"/>
	<polygon class="st3" points="3.3,32.4 13,32.4 10.1,35.2 3.3,35.2 	"/>
	<polygon class="st1" points="14.6,26.4 0.3,26.4 3.3,29.2 14.6,29.2 	"/>
	<polygon class="st2" points="3.3,38.5 0.3,41.3 15.2,41.3 15.2,38.5 	"/>
	<polygon class="st2" points="31.4,29 28.5,26.3 31.4,26.3 	"/>
	<path class="st2" d="M49.1,36.6h7.5c0-1,0-1.7-0.1-2.2c-0.1-0.9-0.4-1.6-0.9-2.3c-0.5-0.7-1.1-1.3-1.9-1.6
		c-0.8-0.3-1.6-0.5-2.6-0.5c-1.6,0-2.9,0.5-3.9,1.5c-1,1-1.5,2.5-1.5,4.4c0,2,0.6,3.5,1.7,4.4c1.1,0.9,2.4,1.4,3.9,1.4
		c1.8,0,3.2-0.5,4.1-1.6c0.6-0.7,1-1.3,1.1-2h-2.9c-0.2,0.3-0.4,0.6-0.6,0.8c-0.4,0.3-0.9,0.5-1.6,0.5c-0.6,0-1.1-0.1-1.6-0.4
		c-0.7-0.4-1-1.2-1.1-2.3c0,0,0-1.4,0-1.9c0-0.6,0.4-1.3,0.8-1.7c0.4-0.4,1-0.6,1.7-0.6c0.7,0,1.2,0.2,1.7,0.6
		c0.5,0.4,0.7,1,0.8,1.7h-2.5L49.1,36.6z"/>
	<path class="st2" d="M83.8,36.6h7.5c0-1,0-1.7-0.1-2.2c-0.1-0.9-0.4-1.6-0.9-2.3c-0.5-0.7-1.1-1.3-1.9-1.6
		c-0.8-0.3-1.6-0.5-2.6-0.5c-1.6,0-2.9,0.5-3.9,1.5c-1,1-1.5,2.5-1.5,4.4c0,2,0.6,3.5,1.7,4.4c1.1,0.9,2.4,1.4,3.9,1.4
		c1.8,0,3.2-0.5,4.1-1.6c0.6-0.7,1-1.3,1.1-2h-2.9c-0.2,0.3-0.4,0.6-0.6,0.8c-0.4,0.3-0.9,0.5-1.6,0.5c-0.6,0-1.1-0.1-1.6-0.4
		c-0.7-0.4-1-1.2-1.1-2.3c0,0,0-1.4,0-1.9c0-0.6,0.4-1.3,0.8-1.7c0.4-0.4,1-0.6,1.7-0.6c0.7,0,1.2,0.2,1.7,0.6
		c0.5,0.4,0.7,1,0.8,1.7h-2.5L83.8,36.6z"/>
	<path class="st2" d="M41,26.5v5.2c-0.3-0.5-0.7-0.9-1.3-1.2c-0.5-0.3-1.1-0.4-1.8-0.4c-1.4,0-2.6,0.5-3.5,1.6
		c-0.9,1.1-1.3,2.6-1.3,4.4c0,1.6,0.4,3,1.3,4c0.9,1,2,1.6,3.2,1.6c0.6,0,1.2-0.1,1.7-0.3l1.7-1.6v1.6h2.8V26.5H41z M41.1,36.4v2.9
		h-2.4c-0.1,0-0.2,0-0.2,0c-0.7,0-1.3-0.3-1.7-0.9c-0.4-0.6-0.6-1.4-0.6-2.4c0-0.9,0.2-1.7,0.6-2.4c0.4-0.6,1-1,1.9-1
		c0.6,0,1,0.2,1.5,0.5c0.7,0.6,1,1.5,1,2.9C41.1,36.1,41.1,36.2,41.1,36.4z"/>
	<path class="st2" d="M67.2,31c-0.7-0.6-1.6-0.9-2.8-0.9c-0.6,0-1.2,0.1-1.6,0.3l-1.7,1.6c0,0,0,0,0,0v0l0,0v-1.6h-2.8v11h2.9v-6
		c0,0,0,0,0,0v-2.9h2.4c0.7,0,1.2,0.3,1.5,0.8c0.2,0.3,0.2,0.8,0.2,1.3v6.7h2.9v-7.4C68.2,32.5,67.9,31.6,67.2,31z"/>
</g>
</svg>
